<svg width="512" height="512" viewBox="0 0 512 512" fill="none" xmlns="http://www.w3.org/2000/svg">
    <defs>
        <linearGradient id="bg-Git" x1="0" y1="0" x2="512" y2="512" gradientUnits="userSpaceOnUse">
            <stop offset="0%" stop-color="#F05032"/>
            <stop offset="100%" stop-color="#c13218"/>
        </linearGradient>
        <linearGradient id="gloss-Git" x1="256" y1="0" x2="256" y2="512" gradientUnits="userSpaceOnUse">
            <stop offset="0%" stop-color="white" stop-opacity="0.15"/>
            <stop offset="100%" stop-color="white" stop-opacity="0"/>
        </linearGradient>
        <clipPath id="squircle-Git">
            <rect width="512" height="512" rx="110" fill="white"/>
        </clipPath>
        <filter id="shadow-Git" x="-20%" y="-20%" width="140%" height="140%">
            <feDropShadow dx="0" dy="10" stdDeviation="15" flood-opacity="0.3"/>
        </filter>
    </defs>
    <g clip-path="url(#squircle-Git)">
        <rect width="512" height="512" fill="url(#bg-Git)"/>
        <rect width="512" height="256" fill="url(#gloss-Git)"/>
        <g filter="url(#shadow-Git)">
            <path d="M256 420V180M256 280l90-90M256 180a30 30 0 1 0-60 0 30 30 0 1 0 60 0zm0 240a30 30 0 1 0-60 0 30 30 0 1 0 60 0zm90-180a30 30 0 1 0-60 0 30 30 0 1 0 60 0z" fill="none" stroke="white" stroke-width="30" stroke-linecap="round" transform="translate(0, 0) scale(1)"/>
        </g>
    </g>
    <rect width="512" height="512" rx="110" stroke="white" stroke-opacity="0.15" stroke-width="8" fill="none"/>
</svg>