<svg width="512" height="512" viewBox="0 0 512 512" fill="none" xmlns="http://www.w3.org/2000/svg">
    <defs>
        <linearGradient id="bg-GitHub" x1="0" y1="0" x2="512" y2="512" gradientUnits="userSpaceOnUse">
            <stop offset="0%" stop-color="#181717"/>
            <stop offset="100%" stop-color="#000000"/>
        </linearGradient>
        <linearGradient id="gloss-GitHub" x1="256" y1="0" x2="256" y2="512" gradientUnits="userSpaceOnUse">
            <stop offset="0%" stop-color="white" stop-opacity="0.15"/>
            <stop offset="100%" stop-color="white" stop-opacity="0"/>
        </linearGradient>
        <clipPath id="squircle-GitHub">
            <rect width="512" height="512" rx="110" fill="white"/>
        </clipPath>
        <filter id="shadow-GitHub" x="-20%" y="-20%" width="140%" height="140%">
            <feDropShadow dx="0" dy="10" stdDeviation="15" flood-opacity="0.3"/>
        </filter>
    </defs>
    <g clip-path="url(#squircle-GitHub)">
        <rect width="512" height="512" fill="url(#bg-GitHub)"/>
        <rect width="512" height="256" fill="url(#gloss-GitHub)"/>
        <g filter="url(#shadow-GitHub)">
            <path d="M256 120c-80 0-140 60-140 140 0 50 30 90 80 110v-30s-20-10-30-30c0 0-10-20-30-20 0 0 20 0 30 20 10 20 40 20 40 20v40h100v-40s30 0 40-20c10-20 30-20 30-20 0 0-20 20-30 20-10 20-30 30-30 30v30c50-20 80-60 80-110 0-80-60-140-140-140z" fill="white" stroke="none" stroke-width="0" stroke-linecap="butt" transform="translate(0, 0) scale(1)"/>
        </g>
    </g>
    <rect width="512" height="512" rx="110" stroke="white" stroke-opacity="0.15" stroke-width="8" fill="none"/>
</svg>