<svg width="512" height="512" viewBox="0 0 512 512" fill="none" xmlns="http://www.w3.org/2000/svg">
    <defs>
        <linearGradient id="bg-OpenAI" x1="0" y1="0" x2="512" y2="512" gradientUnits="userSpaceOnUse">
            <stop offset="0%" stop-color="#10A37F"/>
            <stop offset="100%" stop-color="#09614b"/>
        </linearGradient>
        <linearGradient id="gloss-OpenAI" x1="256" y1="0" x2="256" y2="512" gradientUnits="userSpaceOnUse">
            <stop offset="0%" stop-color="white" stop-opacity="0.15"/>
            <stop offset="100%" stop-color="white" stop-opacity="0"/>
        </linearGradient>
        <clipPath id="squircle-OpenAI">
            <rect width="512" height="512" rx="110" fill="white"/>
        </clipPath>
        <filter id="shadow-OpenAI" x="-20%" y="-20%" width="140%" height="140%">
            <feDropShadow dx="0" dy="10" stdDeviation="15" flood-opacity="0.3"/>
        </filter>
    </defs>
    <g clip-path="url(#squircle-OpenAI)">
        <rect width="512" height="512" fill="url(#bg-OpenAI)"/>
        <rect width="512" height="256" fill="url(#gloss-OpenAI)"/>
        <g filter="url(#shadow-OpenAI)">
            <path fill="white" transform="translate(146, 146) scale(0.5)" d="M378 230a93 93 0 0 0-3-15l-47-81-2 3a93 93 0 0 0-46-77l-7-4a93 93 0 0 0-53-16h-4a93 93 0 0 0-52 17l-78 46a93 93 0 0 0-44 68l-3-5-3 5a93 93 0 0 0-44-68l-78-46a93 93 0 0 0-52-17h-4a93 93 0 0 0-53 16l-7 4a93 93 0 0 0-46 77l-2-3-47 81a93 93 0 0 0-3 15v9a93 93 0 0 0 15 51l47 82 2-3a93 93 0 0 0 46 77l7 4a93 93 0 0 0 53 16h4a93 93 0 0 0 52-17l78-46a93 93 0 0 0 44-68l3 5 3-5a93 93 0 0 0 44 68l78 46a93 93 0 0 0 52 17h4a93 93 0 0 0 53-16l7-4a93 93 0 0 0 46-77l2 3 47-82a93 93 0 0 0 15-51v-9zm-218 83l-41-24 26-46 67 39-52 31zm-72-124l41-24 52 31-26 46-67-53zm135-107l-26 46-52-30 41-24 37 8zm97 53l-67-39 26-46 41 24-0 61zm-27 148l-41 24-52-31 26-46 67 53zm-135 107l26-46 52 30-41 24-37-8z"/>
        </g>
    </g>
    <rect width="512" height="512" rx="110" stroke="white" stroke-opacity="0.15" stroke-width="8" fill="none"/>
</svg>