<svg width="512" height="512" viewBox="0 0 512 512" fill="none" xmlns="http://www.w3.org/2000/svg">
    <defs>
        <linearGradient id="bg-Python" x1="0" y1="0" x2="512" y2="512" gradientUnits="userSpaceOnUse">
            <stop offset="0%" stop-color="#306998"/>
            <stop offset="100%" stop-color="#1e415e"/>
        </linearGradient>
        <linearGradient id="gloss-Python" x1="256" y1="0" x2="256" y2="512" gradientUnits="userSpaceOnUse">
            <stop offset="0%" stop-color="white" stop-opacity="0.15"/>
            <stop offset="100%" stop-color="white" stop-opacity="0"/>
        </linearGradient>
        <clipPath id="squircle-Python">
            <rect width="512" height="512" rx="110" fill="white"/>
        </clipPath>
        <filter id="shadow-Python" x="-20%" y="-20%" width="140%" height="140%">
            <feDropShadow dx="0" dy="10" stdDeviation="15" flood-opacity="0.3"/>
        </filter>
    </defs>
    <g clip-path="url(#squircle-Python)">
        <rect width="512" height="512" fill="url(#bg-Python)"/>
        <rect width="512" height="256" fill="url(#gloss-Python)"/>
        <g filter="url(#shadow-Python)">
            <path d="M256 180c40 0 40 20 40 40 0 20-20 20-40 20h-40v40c0 20-20 20-40 20-40 0-40-20-40-40 0-20 20-20 40-20h40v-40c0-20 20-20 40-20zm0 152c-40 0-40-20-40-40 0-20 20-20 40-20h40v-40c0-20 20-20 40-20 40 0 40 20 40 40 0 20-20 20-40 20h-40v40c0 20-20 20-40 20z" fill="#FFD43B" stroke="none" stroke-width="0" stroke-linecap="butt" transform="translate(0, 0) scale(1.2)"/>
        </g>
    </g>
    <rect width="512" height="512" rx="110" stroke="white" stroke-opacity="0.15" stroke-width="8" fill="none"/>
</svg>