<svg width="512" height="512" viewBox="0 0 512 512" fill="none" xmlns="http://www.w3.org/2000/svg">
    <defs>
        <linearGradient id="bg-Redux" x1="0" y1="0" x2="512" y2="512" gradientUnits="userSpaceOnUse">
            <stop offset="0%" stop-color="#764ABC"/>
            <stop offset="100%" stop-color="#55318e"/>
        </linearGradient>
        <linearGradient id="gloss-Redux" x1="256" y1="0" x2="256" y2="512" gradientUnits="userSpaceOnUse">
            <stop offset="0%" stop-color="white" stop-opacity="0.15"/>
            <stop offset="100%" stop-color="white" stop-opacity="0"/>
        </linearGradient>
        <clipPath id="squircle-Redux">
            <rect width="512" height="512" rx="110" fill="white"/>
        </clipPath>
        <filter id="shadow-Redux" x="-20%" y="-20%" width="140%" height="140%">
            <feDropShadow dx="0" dy="10" stdDeviation="15" flood-opacity="0.3"/>
        </filter>
    </defs>
    <g clip-path="url(#squircle-Redux)">
        <rect width="512" height="512" fill="url(#bg-Redux)"/>
        <rect width="512" height="256" fill="url(#gloss-Redux)"/>
        <g filter="url(#shadow-Redux)">
            <path d="M256 150c-27 0-50 22-50 50 0 27 22 50 50 50s50-22 50-50c0-27-22-50-50-50zm0 100c-27 0-50 22-50 50 0 27 22 50 50 50s50-22 50-50c0-27-22-50-50-50zm-86-50c-27 0-50 22-50 50 0 27 22 50 50 50s50-22 50-50c0-27-22-50-50-50z" fill="none" stroke="white" stroke-width="20" stroke-linecap="butt" transform="translate(0, 0) scale(1)"/>
        </g>
    </g>
    <rect width="512" height="512" rx="110" stroke="white" stroke-opacity="0.15" stroke-width="8" fill="none"/>
</svg>